:SAMPLES-PER-SECOND 30
:FULLY-SPECIFIED
:DEGREES
279
root  34.7923429 36.55144399 -14.43260223 8.302339554 -2.757091761 3.222425461
lowerback  -7.898469448 -0.6718669534 -1.410389662
upperback  -3.949100018 -0.2837150097 -3.819180012
thorax  0.3362559974 0.04401409999 -3.173120022
lowerneck  -7.613530159 -13.51239967 -10.56210041
upperneck  12.25339985 -18.48700142 11.54349995
head  7.060500145 -8.558309555 3.53399992
lclavicle  0 -4.497500157e-015 -2.743230041e-014
lhumerus  -48.44120026 31.25959969 62.33789825
lradius  -0.07683653384 -6.507048965e-006 30.01997375
lwrist  3.192251654e-007 -3.790274832e-007 -28.34980011
lhand  -4.419704412e-031 -36.97000122 -10.2578001
lfingers  90 7.125020027 -90
lthumb  94.75980908 -25.09891884 101.1058154
rclavicle  0 -4.497500157e-015 -2.743230041e-014
rhumerus  -53.33850098 -27.68689919 -42.27429962
rradius  -5.16745672e-007 2.214343908e-008 94.03910065
rwrist  0.0003490542294 -0.002273720223 179.9219971
rhand  -8.839731404e-032 2.975660086 -4.222549915
rfingers  -90 -7.125020027 -90
rthumb  -83.7666517 -11.3374026 -60.94336324
rfemur  -9.935105324 15.59445667 13.5812664
rtibia  -0.3839021623 -0.2412578464 18.54595947
rfoot  1.173491597 -20.35095024 -36.88652039
rtoes  3.814154764 19.64757329 -101.2150869
lfemur  -4.595927238 -16.70856667 -21.26181221
ltibia  4.885909081 -0.1198200807 10.45718193
lfoot  0.2544399202 -23.24625206 35.6750145
ltoes  -8.676434174 -18.08981583 -116.1720619
280
root  34.79564997 36.54988206 -14.43386679 8.275925636 -2.830634356 3.235996485
lowerback  -7.923460007 -0.6661709547 -1.352169633
upperback  -3.95043993 -0.2834889889 -3.779979944
thorax  0.3484840095 0.04213010147 -3.16534996
lowerneck  -7.651370049 -13.4684 -10.51259995
upperneck  12.25139999 -18.41419792 11.43519974
head  7.042140007 -8.529930115 3.501549959
lclavicle  0 -4.497500157e-015 -2.743230041e-014
lhumerus  -48.41540146 31.24880028 62.3891983
lradius  -0.07498522103 -6.507048965e-006 30.01708412
lwrist  3.192251654e-007 -3.790274832e-007 -28.35199928
lhand  -0 -36.91799927 -10.26879978
lfingers  90 7.125020027 -90
lthumb  94.73821952 -25.11161142 101.0513629
rclavicle  0 -4.497500157e-015 -2.743230041e-014
rhumerus  -53.69449997 -27.64159966 -42.92440033
rradius  -5.16745672e-007 2.214343908e-008 93.43840027
rwrist  0.0003490542294 -0.002273720223 -179.776001
rhand  -8.844072051e-032 3.474809885 -4.410649776
rfingers  -90 -7.125020027 -90
rthumb  -83.72580932 -11.19178599 -60.47045534
rfemur  -9.909115791 15.60452461 13.56221771
rtibia  -0.3833521605 -0.265371412 18.53665924
rfoot  1.181249738 -20.39237022 -36.84909058
rtoes  3.83107388 19.6444066 -101.2654103
lfemur  -4.538109779 -16.6568718 -21.30982018
ltibia  4.913387775 -0.1358791143 10.41578102
lfoot  0.254484117 -23.21236801 35.67866135
ltoes  -8.657893709 -18.09846565 -116.1123655
281
root  34.79793579 36.54894191 -14.43323301 8.269555092 -2.88122797 3.224247217
lowerback  -7.94811058 -0.663228035 -1.305570245
upperback  -3.938760042 -0.2856740057 -3.752010107
thorax  0.3738789856 0.03911940008 -3.162899971
lowerneck  -7.705389977 -13.43130016 -10.48480034
upperneck  12.26430035 -18.34930038 11.32800007
head  7.03455019 -8.505249977 3.469860077
lclavicle  0 -4.497500157e-015 -2.743230041e-014
lhumerus  -48.38790131 31.25900078 62.45759964
lradius  -0.0731273219 -6.507048965e-006 30.02930069
lwrist  3.192251654e-007 -3.790274832e-007 -28.41830063
lhand  -0 -36.82770157 -10.24120045
lfingers  90 7.125020027 -90
lthumb  94.69081669 -25.08746133 100.9526103
rclavicle  0 -4.497500157e-015 -2.743230041e-014
rhumerus  -54.08520126 -27.68749809 -43.58430481
rradius  -5.16745672e-007 2.214343908e-008 92.95700073
rwrist  0.0003490542294 -0.002273720223 -179.6269989
rhand  -0 3.112400055 -4.85612011
rfingers  -90 -7.125020027 -90
rthumb  -84.0442551 -10.78909429 -60.869085
rfemur  -9.890416145 15.60589123 13.56153584
rtibia  -0.3705075681 -0.2935306728 18.49534988
rfoot  1.201301217 -20.4454174 -36.81315231
rtoes  3.844108393 19.641957 -101.3041849
lfemur  -4.558146477 -16.62089539 -21.28948784
ltibia  4.886191845 -0.127578184 10.47011852
lfoot  0.2732879817 -23.25946617 35.70955658
ltoes  -8.585376663 -18.13207512 -115.8791394
282
root  34.79876781 36.54652994 -14.4294904 8.242383957 -2.893515825 3.261641502
lowerback  -7.942700386 -0.6841229796 -1.24802959
upperback  -3.950700045 -0.3223730028 -3.70152998
thorax  0.3567579985 0.01883669943 -3.145800114
lowerneck  -7.740320206 -13.38780022 -10.50489998
upperneck  12.28050041 -18.27949905 11.28059959
head  7.034959793 -8.475950241 3.465029955
lclavicle  0 -4.497500157e-015 -2.743230041e-014
lhumerus  -48.37379837 31.2493 62.51399994
lradius  -0.07125246525 -6.507048965e-006 30.03339958
lwrist  3.192251654e-007 -3.790274832e-007 -28.4428997
lhand  -0 -36.79150009 -10.21730042
lfingers  90 7.125020027 -90
lthumb  94.66923336 -25.0652647 100.9120208
rclavicle  0 -4.497500157e-015 -2.743230041e-014
rhumerus  -54.44189835 -27.71170235 -44.26609802
rradius  -5.16745672e-007 2.214343908e-008 92.45480347
rwrist  0.0003490542294 -0.002273720223 -179.4230042
rhand  -1.768510709e-031 3.308809996 -4.24612999
rfingers  -90 -7.125020027 -90
rthumb  -83.68830413 -11.32880751 -60.61774152
rfemur  -9.863901138 15.61466694 13.52486134
rtibia  -0.3763872683 -0.3020294607 18.52257347
rfoot  1.177768469 -20.463974 -36.8368187
rtoes  3.833994232 19.64385852 -101.2740972
lfemur  -4.3771348 -16.56117058 -21.42545128
ltibia  5.023049831 -0.1417292207 10.22853851
lfoot  0.2420448363 -23.15077209 35.6425209
ltoes  -8.62886698 -18.11196113 -116.0189608
283
root  34.79891199 36.54708562 -14.43450958 8.271280289 -2.966061354 3.232497215
lowerback  -7.974959373 -0.6822859645 -1.253669977
upperback  -3.924160004 -0.3220899999 -3.674220085
thorax  0.4022800028 0.01762779988 -3.114439964
lowerneck  -7.764210224 -13.35039997 -10.50450039
upperneck  12.27299976 -18.21980095 11.23709965
head  7.02545023 -8.451270103 3.458359957
lclavicle  0 -4.497500157e-015 -2.743230041e-014
lhumerus  -48.3572998 31.27149963 62.59019852
lradius  -0.06936665624 -6.507048965e-006 30.0739994
lwrist  3.192251654e-007 -3.790274832e-007 -28.37179947
lhand  -4.404560901e-031 -36.70750046 -10.33139992
lfingers  90 7.125020027 -90
lthumb  94.65429932 -25.18017779 100.8324777
rclavicle  0 -4.497500157e-015 -2.743230041e-014
rhumerus  -54.69110107 -27.68589783 -44.92720032
rradius  -5.16745672e-007 2.214343908e-008 91.70439911
rwrist  0.0003490542294 -0.002273720223 -179.2810059
rhand  -1.768824823e-031 3.480360031 -4.557779789
rfingers  -90 -7.125020027 -90
rthumb  -83.79825243 -11.06390751 -60.47926671
rfemur  -9.929166794 15.58210468 13.52917767
rtibia  -0.3690669835 -0.3363848329 18.53822708
rfoot  1.171021938 -20.56190872 -36.76838303
rtoes  3.842185163 19.64231898 -101.2984634
lfemur  -4.604156494 -16.55270195 -21.28876877
ltibia  4.84544611 -0.1430263966 10.51964569
lfoot  0.2465721369 -23.24518967 35.6659584
ltoes  -8.583886977 -18.13276184 -115.8743527
